<svg width="40" height="39" viewBox="0 0 40 39" fill="none" xmlns="http://www.w3.org/2000/svg">
<circle cx="20.3929" cy="19.4998" r="19.5" fill="#E3B873"/>
<path d="M24.5714 11.699H16.2143C13.9065 11.699 12.0357 13.5698 12.0357 15.8775V24.2347C12.0357 26.5424 13.9065 28.4133 16.2143 28.4133H24.5714C26.8792 28.4133 28.75 26.5424 28.75 24.2347V15.8775C28.75 13.5698 26.8792 11.699 24.5714 11.699Z" stroke="white" stroke-width="1.5"/>
<path d="M23.7357 19.5298C23.8388 20.2253 23.72 20.9356 23.3962 21.5597C23.0723 22.1838 22.56 22.6899 21.9319 23.0061C21.3038 23.3222 20.5921 23.4322 19.8979 23.3205C19.2037 23.2088 18.5624 22.881 18.0652 22.3839C17.568 21.8867 17.2403 21.2454 17.1286 20.5512C17.0169 19.857 17.1269 19.1452 17.443 18.5172C17.7591 17.8891 18.2653 17.3767 18.8894 17.0529C19.5135 16.7291 20.2238 16.6103 20.9193 16.7134C21.6288 16.8186 22.2856 17.1492 22.7927 17.6563C23.2999 18.1635 23.6305 18.8203 23.7357 19.5298Z" stroke="white" stroke-width="1.5" stroke-linecap="round" stroke-linejoin="round"/>
</svg>
